<svg t="1762177452641" class="icon" viewBox="0 0 1024 1024" version="1.1" xmlns="http://www.w3.org/2000/svg" p-id="3790" id="mx_n_1762177452641" data-spm-anchor-id="a313x.search_index.0.i5.15b63a81eGu35H" width="200" height="200"><path d="M452.994 872.432l-94.156-94.156 150.724-150.724-113.136-113.138-150.724 150.724-94.156-94.156c-31.242-31.242-81.896-31.242-113.138 0-31.242 31.242-31.242 81.896 0 113.138l94.156 94.156-94.156 94.156c-31.242 31.242-31.242 81.896 0 113.136 31.242 31.242 81.896 31.242 113.138 0l94.156-94.156 94.156 94.156c31.242 31.242 81.896 31.242 113.138 0 31.24-31.242 31.24-81.894-0.002-113.136z" fill="#FDA0C1" p-id="3791"></path><path d="M509.564 627.552l-113.136-113.136-150.724 150.724-94.156-94.156c-31.242-31.242-81.896-31.242-113.138 0s-31.242 81.896 0 113.138l94.156 94.156-94.156 94.156c-31.242 31.242-31.242 81.896 0 113.136 31.242 31.242 81.896 31.242 113.138 0l94.156-94.156c-31.242-31.242-31.242-81.894 0-113.138 31.242-31.242 81.896-31.242 113.138 0z" fill="#FC90B4" p-id="3792"></path><path d="M1008.978 395c0-209.868-170.132-380-380-380s-380 170.132-380 380 170.132 380 380 380 380-170.132 380-380z m-160 0c0 121.308-98.692 220-220 220s-220-98.692-220-220 98.692-220 220-220 220 98.692 220 220z" fill="#FDB3CD" p-id="3793" data-spm-anchor-id="a313x.search_index.0.i4.15b63a81eGu35H" class=""></path><path d="M548.978 95c0 44.182 35.818 80 80 80-121.308 0-220 98.692-220 220s98.692 220 220 220c-44.182 0-80 35.818-80 80s35.816 80 80 80c-209.868 0-380-170.132-380-380s170.132-380 380-380c-44.184 0-80 35.818-80 80z" fill="#FDA0C1" p-id="3794"></path><path d="M448.978 404.194a48.516 38.636 0 1 0 97.032 0 48.516 38.636 0 1 0-97.032 0Z" fill="#FDA0C1" p-id="3795"></path><path d="M711.946 404.194a48.516 38.636 0 1 0 97.032 0 48.516 38.636 0 1 0-97.032 0Z" fill="#FDA0C1" p-id="3796"></path><path d="M525.768 382.002a15 15 0 0 1-15-15v-19.832c0-8.286 6.716-15 15-15s15 6.714 15 15v19.832a15 15 0 0 1-15 15zM732.188 382.002a15 15 0 0 1-15-15v-19.832c0-8.286 6.716-15 15-15s15 6.714 15 15v19.832a15 15 0 0 1-15 15z" p-id="3797"></path><path d="M628.978 393.808a51.092 51.092 0 0 1-38.52-17.542 15 15 0 0 1 22.618-19.71c4.016 4.61 9.812 7.252 15.902 7.252s11.886-2.642 15.902-7.252a15 15 0 0 1 22.618 19.71 51.092 51.092 0 0 1-38.52 17.542z" p-id="3798"></path><path d="M929.462 138.602a15 15 0 0 0-22.812 19.484c56.314 65.936 87.328 150.074 87.328 236.914 0 201.262-163.738 365-365 365s-365-163.738-365-365S427.716 30 628.978 30c86.84 0 170.976 31.014 236.912 87.326a15 15 0 0 0 19.482-22.812C814.01 33.566 722.954 0 628.978 0c-217.804 0-395 177.196-395 395 0 74.536 20.76 144.31 56.79 203.86l-45.064 45.066-83.55-83.55c-37.042-37.04-97.308-37.04-134.35 0-37.042 37.042-37.042 97.312 0 134.354l83.548 83.546-23.288 23.29a15 15 0 1 0 21.212 21.21l33.894-33.892a15 15 0 0 0 0-21.214l-94.156-94.154c-25.344-25.344-25.344-66.58 0-91.924 25.342-25.346 66.58-25.344 91.924 0l94.156 94.156a15.002 15.002 0 0 0 21.212 0l51.314-51.314a398.34 398.34 0 0 0 91.922 91.922l-51.314 51.314a15 15 0 0 0 0 21.214l94.156 94.156c25.342 25.342 25.342 66.58 0 91.924-12.276 12.276-28.6 19.038-45.962 19.038s-33.684-6.762-45.962-19.04l-94.156-94.156a15 15 0 0 0-21.212 0L140.94 974.96c-25.344 25.344-66.582 25.344-91.924 0-25.344-25.342-25.344-66.58 0-91.922l17.836-17.836a15 15 0 0 0-21.212-21.214l-17.836 17.836c-37.042 37.042-37.042 97.31 0 134.352 37.04 37.04 97.31 37.04 134.35 0l83.55-83.55 83.548 83.55c17.944 17.944 41.8 27.824 67.174 27.824 25.376 0 49.232-9.882 67.174-27.824 37.042-37.042 37.042-97.31 0-134.352l-83.548-83.548 45.066-45.064C484.668 769.24 554.442 790 628.978 790c217.804 0 395-177.196 395-395 0-93.976-33.566-185.036-94.516-256.398z" p-id="3799" data-spm-anchor-id="a313x.search_index.0.i6.15b63a81eGu35H" class=""></path><path d="M393.978 395c0 129.58 105.42 235 235 235s235-105.42 235-235S758.556 160 628.978 160s-235 105.42-235 235z m440 0c0 113.038-91.962 205-205 205s-205-91.962-205-205S515.94 190 628.978 190s205 91.962 205 205z" p-id="3800"></path></svg>