<svg t="1765017024700" class="icon" viewBox="0 0 1025 1024" version="1.1" xmlns="http://www.w3.org/2000/svg" p-id="5421" width="200" height="200"><path d="M96.91616 512a32 32 0 0 1-18.56-57.92L288.91616 303.04a80.64 80.64 0 0 1 128 64V480a32 32 0 0 1-32 32H160.91616a32 32 0 0 1-28.8-17.92c-18.88 13.76-23.04 17.92-35.2 17.92z m99.84-64H352.91616v-79.68a16.96 16.96 0 0 0-25.92-13.12z" fill="#1296db" p-id="5422"></path><path d="M992.91616 576a32 32 0 0 0-32 32 32 32 0 0 1-32 32 128 128 0 0 0-120.96-128l-208.64-58.88-25.92-51.52a32 32 0 0 0-56.96 28.8l8.64 17.6C131.47616 448 151.31616 448 128.91616 451.2v-106.24l24.32 6.08A32 32 0 0 0 168.59616 288l-128-32a32 32 0 0 0-15.36 64l39.68 8.96V480a160 160 0 1 0 224 32h284.48l136.64 39.04A128 128 0 0 0 672.91616 640h-288a32 32 0 0 0 0 64h305.92a128 128 0 0 0 220.16 0H928.91616c96 0 125.44-128 64-128zM256.91616 608a96 96 0 1 1-96-96 96 96 0 0 1 96 96z m544 96a64 64 0 1 1 64-64 64 64 0 0 1-64 64z" fill="#1296db" p-id="5423"></path></svg>