<svg t="1765707772381" class="icon" viewBox="0 0 1024 1024" version="1.1" xmlns="http://www.w3.org/2000/svg" p-id="6712" width="200" height="200"><path d="M51.9 623.6m-47.5 0a47.5 47.5 0 1 0 95 0 47.5 47.5 0 1 0-95 0Z" fill="#11AAED" p-id="6713"></path><path d="M975.9 671.1H252.6c-26.1 0-47.5-21.4-47.5-47.5s21.4-47.5 47.5-47.5H976c26.1 0 47.5 21.4 47.5 47.5-0.1 26.1-21.4 47.5-47.6 47.5z" fill="#11AAED" p-id="6714"></path><path d="M51.9 847.1m-47.5 0a47.5 47.5 0 1 0 95 0 47.5 47.5 0 1 0-95 0Z" fill="#11AAED" p-id="6715"></path><path d="M975.9 894.6H252.6c-26.1 0-47.5-21.4-47.5-47.5s21.4-47.5 47.5-47.5H976c26.1 0 47.5 21.4 47.5 47.5-0.1 26.1-21.4 47.5-47.6 47.5z" fill="#11AAED" p-id="6716"></path><path d="M51.9 400m-47.5 0a47.5 47.5 0 1 0 95 0 47.5 47.5 0 1 0-95 0Z" fill="#11AAED" p-id="6717"></path><path d="M975.9 447.6H252.6c-26.1 0-47.5-21.4-47.5-47.5s21.4-47.5 47.5-47.5H976c26.1 0 47.5 21.4 47.5 47.5-0.1 26.1-21.4 47.5-47.6 47.5z" fill="#11AAED" p-id="6718"></path><path d="M51.9 176.5m-47.5 0a47.5 47.5 0 1 0 95 0 47.5 47.5 0 1 0-95 0Z" fill="#11AAED" p-id="6719"></path><path d="M975.9 224H252.6c-26.1 0-47.5-21.4-47.5-47.5s21.4-47.5 47.5-47.5H976c26.1 0 47.5 21.4 47.5 47.5-0.1 26.2-21.4 47.5-47.6 47.5z" fill="#11AAED" p-id="6720"></path></svg>