<svg viewBox="0 0 24 24" xmlns="http://www.w3.org/2000/svg">
  <path d="M12 15.5a3.5 3.5 0 1 1 0-7 3.5 3.5 0 0 1 0 7z" fill="none" stroke="currentColor" stroke-width="1.5"/>
  <path d="M19.4 15c-.3.6-.9 1.1-1.5 1.4l.3 1.8-2.6 1.5-1.2-1.4c-.7.1-1.4.1-2.1 0l-1.2 1.4-2.6-1.5.3-1.8c-.6-.3-1.2-.8-1.5-1.4L5.5 15l-.8-3 1.6-.9c-.1-.7-.1-1.4 0-2.1l-1.6-.9.8-3 1.8.3c.3-.6.9-1.1 1.5-1.4L8.5 2.2l2.6-1.5 1.2 1.4c.7-.1 1.4-.1 2.1 0l1.2-1.4 2.6 1.5-.3 1.8c.6.3 1.2.8 1.5 1.4l1.8-.3.8 3-1.6.9c.1.7.1 1.4 0 2.1l1.6.9-.8 3-1.8-.3z" fill="none" stroke="currentColor" stroke-width="1.5" stroke-linecap="round" stroke-linejoin="round"/>
</svg>