<svg t="1764498202749" class="icon" viewBox="0 0 1553 1024" version="1.1" xmlns="http://www.w3.org/2000/svg" p-id="5691" width="200" height="200"><path d="M835.571302 1003.946995v18.852649l-122.912918-0.300089a20.47666 20.47666 0 0 1-0.211828 0.070609 7.625791 7.625791 0 0 1-7.23744 0.882615H288.491429c-3.00089 0-282.613215-6.054737-288.509081-282.489649 0-231.774611 186.319955-307.379383 245.031483-325.472983-1.447488-40.918016 5.631082-141.218346 102.100864-202.895459C449.956955 150.899923 540.51322 157.943188 577.00051 164.545146c30.132465-51.085737 148.10274-211.456821 412.022177-150.927108C1242.227182 71.658778 1303.480639 350.865101 1314.460366 416.478675c55.26933 16.840288 253.027972 94.75751 238.129436 340.971697v1.518097C1516.314339 1020.699021 1256.490235 1023.646954 1253.665868 1023.646954H871.228934l-0.088261 0.353046c-11.297468 0-20.47666-8.967365-20.600227-20.053005h-14.969144z m0 0V650.583388H970.87613L767.927714 441.474322 564.873384 650.583388h135.304828v365.314209a8.120055 8.120055 0 0 0 5.013252 7.572834h0.776701a20.564922 20.564922 0 0 0 6.566653-0.970876h0.123566a20.300137 20.300137 0 0 0 8.049445-4.819076c3.724634-3.654025 5.860561-8.579015 5.948823-13.733484h108.91465z" fill="#7dc5eb" p-id="5692"></path></svg>