<?xml version="1.0" standalone="no"?><!DOCTYPE svg PUBLIC "-//W3C//DTD SVG 1.1//EN" "http://www.w3.org/Graphics/SVG/1.1/DTD/svg11.dtd"><svg t="1743077316616" class="icon" viewBox="0 0 1343 1024" version="1.1" xmlns="http://www.w3.org/2000/svg" p-id="1474" xmlns:xlink="http://www.w3.org/1999/xlink" width="262.3046875" height="200"><path d="M708.286778 726.293358L285.084118 325.181164a88.836929 88.836929 0 0 0-23.75319 17.89407L85.161439 528.11258 75.897696 183.612155a76.089384 76.089384 0 0 1 73.714064-77.593752l311.958556-8.392794 73.239001-77.277043-387.256166 10.372226A151.307817 151.307817 0 0 0 0.045844 185.670765l11.322353 419.639681L18.414977 863.032552A151.070285 151.070285 0 0 0 174.2359 1009.906441l272.211552-7.363489 18.527488-0.475064 73.239001-77.35622 179.65329-190.025516zM956.824317 439.671538a113.065182 113.065182 0 1 0-113.777777-113.065182 113.381891 113.381891 0 0 0 113.777777 113.065182z" p-id="1475"></path><path d="M1212.408637 52.336194L836.87071 0 751.675937 64.133612l450.360473 62.550065A75.772675 75.772675 0 0 1 1266.882618 212.115982l-84.007114 602.539241-187.175133-246.003866a92.558262 92.558262 0 0 0-129.138174-18.052424l-68.092476 51.148535 100.634346 133.255393-85.511482 64.687853-123.041522 92.874971-84.878064 64.133611 52.811258 7.363489 418.372845 58.353669a150.832753 150.832753 0 0 0 169.914482-123.041522 30.641614 30.641614 0 0 0 0.950128-5.384056l93.666744-671.344313a151.149463 151.149463 0 0 0-128.979819-170.310369z" p-id="1476"></path></svg>