<?xml version="1.0" standalone="no"?><!DOCTYPE svg PUBLIC "-//W3C//DTD SVG 1.1//EN" "http://www.w3.org/Graphics/SVG/1.1/DTD/svg11.dtd"><svg t="1743074755129" class="icon" viewBox="0 0 1024 1024" version="1.1" xmlns="http://www.w3.org/2000/svg" p-id="2624" xmlns:xlink="http://www.w3.org/1999/xlink" width="200" height="200"><path d="M819.2 122.88H204.8c-67.584 0-122.88 55.296-122.88 122.88v552.96c0 67.584 55.296 122.88 122.88 122.88h614.4c67.584 0 122.88-55.296 122.88-122.88V245.76c0-67.584-55.296-122.88-122.88-122.88z m61.44 675.84c0 34.816-26.624 61.44-61.44 61.44H204.8c-22.528 0-40.96-12.288-53.248-30.72l204.8-204.8 100.352 100.352c12.288 12.288 36.864 10.24 51.2-6.144l217.088-217.088L880.64 655.36v143.36z m0-227.328l-133.12-133.12c-12.288-12.288-30.72-12.288-40.96 0-2.048 2.048 0 4.096-2.048 4.096L481.28 663.552l-102.4-102.4c-12.288-12.288-30.72-12.288-40.96 0-2.048 2.048 0 4.096-2.048 4.096L143.36 755.712V245.76c0-34.816 26.624-61.44 61.44-61.44h614.4c34.816 0 61.44 26.624 61.44 61.44v325.632zM450.56 245.76c-67.584 0-122.88 55.296-122.88 122.88s55.296 122.88 122.88 122.88 122.88-55.296 122.88-122.88-55.296-122.88-122.88-122.88z m0 184.32c-34.816 0-61.44-26.624-61.44-61.44s26.624-61.44 61.44-61.44 61.44 26.624 61.44 61.44-26.624 61.44-61.44 61.44z m0 0" p-id="2625"></path></svg>
