<?xml version="1.0" standalone="no"?><!DOCTYPE svg PUBLIC "-//W3C//DTD SVG 1.1//EN" "http://www.w3.org/Graphics/SVG/1.1/DTD/svg11.dtd"><svg t="1743125181011" class="icon" viewBox="0 0 1024 1024" version="1.1" xmlns="http://www.w3.org/2000/svg" p-id="6001" xmlns:xlink="http://www.w3.org/1999/xlink" width="200" height="200"><path d="M802.986667 236.885333l-112.981334-104.448c-20.48-19.456-47.445333-30.037333-75.776-30.037333h-317.098666c-61.44 0-111.616 50.176-111.616 111.616v595.968c0 61.44 50.176 111.616 111.616 111.616h429.738666c61.44 0 111.616-50.176 111.616-111.616V318.805333c0-31.061333-12.970667-60.757333-35.498666-81.92z m-402.432 146.090667c92.2624-92.296533 89.088-89.531733 92.501333-91.818667a33.792 33.792 0 0 1 18.773333-5.802666h0.341334c8.874667 0 17.408 3.754667 23.893333 9.898666l87.381333 87.722667a33.9968 33.9968 0 1 1-48.128 48.128l-29.013333-29.013333v120.490666c0 19.114667-15.36 34.133333-34.133333 34.133334-19.114667 0-34.133333-15.018667-34.133334-34.133334v-120.490666l-29.354666 29.354666a34.235733 34.235733 0 0 1-48.128 0c-13.312-13.312-13.312-35.157333 0-48.469333z m243.712 355.669333h-264.533334c-18.773333 0-34.133333-15.36-34.133333-34.133333s15.36-34.133333 34.133333-34.133333h264.533334c18.773333 0 34.133333 15.36 34.133333 34.133333s-15.36 34.133333-34.133333 34.133333z" p-id="6002"></path></svg>